<mxfile host="app.diagrams.net" agent="Mozilla/5.0 (Windows NT 10.0; Win64; x64) AppleWebKit/537.36 (KHTML, like Gecko) Chrome/118.0.0.0 Safari/537.36" version="27.2.0">
  <diagram name="第 1 页" id="o119lS6-7UZ4f8Y3CVmO">
    <mxGraphModel dx="854" dy="373" grid="1" gridSize="10" guides="1" tooltips="1" connect="1" arrows="1" fold="1" page="1" pageScale="1" pageWidth="827" pageHeight="1169" math="0" shadow="0">
      <root>
        <mxCell id="0" />
        <mxCell id="1" parent="0" />
        <mxCell id="4glgY-5p6oQ_kS3YtmnU-62" value="" style="group" vertex="1" connectable="0" parent="1">
          <mxGeometry x="170" y="190" width="477.96000000000004" height="750" as="geometry" />
        </mxCell>
        <mxCell id="4glgY-5p6oQ_kS3YtmnU-37" value="" style="group" vertex="1" connectable="0" parent="4glgY-5p6oQ_kS3YtmnU-62">
          <mxGeometry x="204" width="86" height="60" as="geometry" />
        </mxCell>
        <mxCell id="4glgY-5p6oQ_kS3YtmnU-35" value="" style="ellipse;whiteSpace=wrap;html=1;" vertex="1" parent="4glgY-5p6oQ_kS3YtmnU-37">
          <mxGeometry width="86" height="60" as="geometry" />
        </mxCell>
        <mxCell id="4glgY-5p6oQ_kS3YtmnU-36" value="线程尝试获取锁" style="text;strokeColor=none;align=center;fillColor=none;html=1;verticalAlign=middle;whiteSpace=wrap;rounded=0;" vertex="1" parent="4glgY-5p6oQ_kS3YtmnU-37">
          <mxGeometry x="13" y="15" width="60" height="30" as="geometry" />
        </mxCell>
        <mxCell id="4glgY-5p6oQ_kS3YtmnU-61" value="" style="group" vertex="1" connectable="0" parent="4glgY-5p6oQ_kS3YtmnU-62">
          <mxGeometry y="60" width="477.96000000000004" height="690" as="geometry" />
        </mxCell>
        <mxCell id="4glgY-5p6oQ_kS3YtmnU-59" value="" style="group" vertex="1" connectable="0" parent="4glgY-5p6oQ_kS3YtmnU-61">
          <mxGeometry x="95" width="382.96000000000004" height="450" as="geometry" />
        </mxCell>
        <mxCell id="4glgY-5p6oQ_kS3YtmnU-2" value="" style="endArrow=classic;html=1;rounded=0;" edge="1" parent="4glgY-5p6oQ_kS3YtmnU-59">
          <mxGeometry width="50" height="50" relative="1" as="geometry">
            <mxPoint x="151.5" as="sourcePoint" />
            <mxPoint x="151.5" y="50" as="targetPoint" />
          </mxGeometry>
        </mxCell>
        <mxCell id="4glgY-5p6oQ_kS3YtmnU-19" value="" style="endArrow=classic;html=1;rounded=0;" edge="1" parent="4glgY-5p6oQ_kS3YtmnU-59">
          <mxGeometry width="50" height="50" relative="1" as="geometry">
            <mxPoint x="49.5" y="230" as="sourcePoint" />
            <mxPoint x="49.5" y="290" as="targetPoint" />
          </mxGeometry>
        </mxCell>
        <mxCell id="4glgY-5p6oQ_kS3YtmnU-20" value="" style="endArrow=classic;html=1;rounded=0;" edge="1" parent="4glgY-5p6oQ_kS3YtmnU-59">
          <mxGeometry width="50" height="50" relative="1" as="geometry">
            <mxPoint x="263.5" y="230" as="sourcePoint" />
            <mxPoint x="263.5" y="290" as="targetPoint" />
          </mxGeometry>
        </mxCell>
        <mxCell id="4glgY-5p6oQ_kS3YtmnU-21" value="" style="endArrow=classic;html=1;rounded=0;" edge="1" parent="4glgY-5p6oQ_kS3YtmnU-59">
          <mxGeometry width="50" height="50" relative="1" as="geometry">
            <mxPoint x="49.5" y="340" as="sourcePoint" />
            <mxPoint x="49.5" y="400" as="targetPoint" />
          </mxGeometry>
        </mxCell>
        <mxCell id="4glgY-5p6oQ_kS3YtmnU-22" value="" style="endArrow=classic;html=1;rounded=0;" edge="1" parent="4glgY-5p6oQ_kS3YtmnU-59">
          <mxGeometry width="50" height="50" relative="1" as="geometry">
            <mxPoint x="263.5" y="340" as="sourcePoint" />
            <mxPoint x="263.5" y="400" as="targetPoint" />
          </mxGeometry>
        </mxCell>
        <mxCell id="4glgY-5p6oQ_kS3YtmnU-23" value="" style="curved=1;endArrow=classic;html=1;rounded=0;entryX=1;entryY=0.5;entryDx=0;entryDy=0;exitX=0.997;exitY=0.528;exitDx=0;exitDy=0;exitPerimeter=0;" edge="1" parent="4glgY-5p6oQ_kS3YtmnU-59" source="4glgY-5p6oQ_kS3YtmnU-17" target="4glgY-5p6oQ_kS3YtmnU-50">
          <mxGeometry width="50" height="50" relative="1" as="geometry">
            <mxPoint x="330" y="425" as="sourcePoint" />
            <mxPoint x="192.75" y="85" as="targetPoint" />
            <Array as="points">
              <mxPoint x="362.96000000000004" y="400" />
              <mxPoint x="382.96000000000004" y="290" />
              <mxPoint x="352.96000000000004" y="160" />
              <mxPoint x="312.96000000000004" y="120" />
              <mxPoint x="282.96000000000004" y="100" />
              <mxPoint x="232.96000000000004" y="83" />
            </Array>
          </mxGeometry>
        </mxCell>
        <mxCell id="4glgY-5p6oQ_kS3YtmnU-38" value="" style="group" vertex="1" connectable="0" parent="4glgY-5p6oQ_kS3YtmnU-59">
          <mxGeometry y="180" width="100" height="50" as="geometry" />
        </mxCell>
        <mxCell id="4glgY-5p6oQ_kS3YtmnU-3" value="" style="rounded=1;whiteSpace=wrap;html=1;fillColor=#CCFFCC;" vertex="1" parent="4glgY-5p6oQ_kS3YtmnU-38">
          <mxGeometry width="100" height="50" as="geometry" />
        </mxCell>
        <mxCell id="4glgY-5p6oQ_kS3YtmnU-4" value="获取锁成功" style="text;strokeColor=none;align=center;fillColor=none;html=1;verticalAlign=middle;whiteSpace=wrap;rounded=0;" vertex="1" parent="4glgY-5p6oQ_kS3YtmnU-38">
          <mxGeometry x="15" y="10" width="70" height="30" as="geometry" />
        </mxCell>
        <mxCell id="4glgY-5p6oQ_kS3YtmnU-39" value="" style="group" vertex="1" connectable="0" parent="4glgY-5p6oQ_kS3YtmnU-59">
          <mxGeometry x="200" y="180" width="128" height="50" as="geometry" />
        </mxCell>
        <mxCell id="4glgY-5p6oQ_kS3YtmnU-5" value="" style="rounded=1;whiteSpace=wrap;html=1;fillColor=#FFE6CC;" vertex="1" parent="4glgY-5p6oQ_kS3YtmnU-39">
          <mxGeometry width="128" height="50" as="geometry" />
        </mxCell>
        <mxCell id="4glgY-5p6oQ_kS3YtmnU-6" value="进入_EntryList队列" style="text;strokeColor=none;align=center;fillColor=none;html=1;verticalAlign=middle;whiteSpace=wrap;rounded=0;" vertex="1" parent="4glgY-5p6oQ_kS3YtmnU-39">
          <mxGeometry x="9" y="10" width="110" height="30" as="geometry" />
        </mxCell>
        <mxCell id="4glgY-5p6oQ_kS3YtmnU-40" value="" style="group" vertex="1" connectable="0" parent="4glgY-5p6oQ_kS3YtmnU-59">
          <mxGeometry x="200" y="290" width="128" height="50" as="geometry" />
        </mxCell>
        <mxCell id="4glgY-5p6oQ_kS3YtmnU-13" value="" style="rounded=1;whiteSpace=wrap;html=1;fillColor=#FFE6CC;" vertex="1" parent="4glgY-5p6oQ_kS3YtmnU-40">
          <mxGeometry width="128" height="50" as="geometry" />
        </mxCell>
        <mxCell id="4glgY-5p6oQ_kS3YtmnU-14" value="线程进入阻塞状态" style="text;strokeColor=none;align=center;fillColor=none;html=1;verticalAlign=middle;whiteSpace=wrap;rounded=0;" vertex="1" parent="4glgY-5p6oQ_kS3YtmnU-40">
          <mxGeometry x="11" y="10" width="108" height="30" as="geometry" />
        </mxCell>
        <mxCell id="4glgY-5p6oQ_kS3YtmnU-41" value="" style="group" vertex="1" connectable="0" parent="4glgY-5p6oQ_kS3YtmnU-59">
          <mxGeometry y="290" width="100" height="50" as="geometry" />
        </mxCell>
        <mxCell id="4glgY-5p6oQ_kS3YtmnU-11" value="" style="rounded=1;whiteSpace=wrap;html=1;fillColor=#CCFFCC;" vertex="1" parent="4glgY-5p6oQ_kS3YtmnU-41">
          <mxGeometry width="100" height="50" as="geometry" />
        </mxCell>
        <mxCell id="4glgY-5p6oQ_kS3YtmnU-12" value="执行同步代码" style="text;strokeColor=none;align=center;fillColor=none;html=1;verticalAlign=middle;whiteSpace=wrap;rounded=0;" vertex="1" parent="4glgY-5p6oQ_kS3YtmnU-41">
          <mxGeometry x="5" y="10" width="90" height="30" as="geometry" />
        </mxCell>
        <mxCell id="4glgY-5p6oQ_kS3YtmnU-42" value="" style="group" vertex="1" connectable="0" parent="4glgY-5p6oQ_kS3YtmnU-59">
          <mxGeometry y="400" width="100" height="50" as="geometry" />
        </mxCell>
        <mxCell id="4glgY-5p6oQ_kS3YtmnU-15" value="" style="rounded=1;whiteSpace=wrap;html=1;fillColor=#CCFFCC;" vertex="1" parent="4glgY-5p6oQ_kS3YtmnU-42">
          <mxGeometry width="100" height="50" as="geometry" />
        </mxCell>
        <mxCell id="4glgY-5p6oQ_kS3YtmnU-16" value="释放锁" style="text;strokeColor=none;align=center;fillColor=none;html=1;verticalAlign=middle;whiteSpace=wrap;rounded=0;" vertex="1" parent="4glgY-5p6oQ_kS3YtmnU-42">
          <mxGeometry x="20" y="10" width="60" height="30" as="geometry" />
        </mxCell>
        <mxCell id="4glgY-5p6oQ_kS3YtmnU-43" value="" style="group" vertex="1" connectable="0" parent="4glgY-5p6oQ_kS3YtmnU-59">
          <mxGeometry x="200" y="400" width="128" height="50" as="geometry" />
        </mxCell>
        <mxCell id="4glgY-5p6oQ_kS3YtmnU-17" value="" style="rounded=1;whiteSpace=wrap;html=1;fillColor=#FFE6CC;" vertex="1" parent="4glgY-5p6oQ_kS3YtmnU-43">
          <mxGeometry width="128" height="50" as="geometry" />
        </mxCell>
        <mxCell id="4glgY-5p6oQ_kS3YtmnU-18" value="被唤醒后重新尝试获取锁" style="text;strokeColor=none;align=center;fillColor=none;html=1;verticalAlign=middle;whiteSpace=wrap;rounded=0;" vertex="1" parent="4glgY-5p6oQ_kS3YtmnU-43">
          <mxGeometry x="25" y="10" width="80" height="30" as="geometry" />
        </mxCell>
        <mxCell id="4glgY-5p6oQ_kS3YtmnU-52" value="" style="group" vertex="1" connectable="0" parent="4glgY-5p6oQ_kS3YtmnU-59">
          <mxGeometry x="107" y="50" width="90" height="90" as="geometry" />
        </mxCell>
        <mxCell id="4glgY-5p6oQ_kS3YtmnU-50" value="" style="rhombus;whiteSpace=wrap;html=1;fillColor=#CCCCFF;" vertex="1" parent="4glgY-5p6oQ_kS3YtmnU-52">
          <mxGeometry width="90" height="90" as="geometry" />
        </mxCell>
        <mxCell id="4glgY-5p6oQ_kS3YtmnU-51" value="CAS设置_owner" style="text;strokeColor=none;align=center;fillColor=none;html=1;verticalAlign=middle;whiteSpace=wrap;rounded=0;" vertex="1" parent="4glgY-5p6oQ_kS3YtmnU-52">
          <mxGeometry x="15" y="30" width="60" height="30" as="geometry" />
        </mxCell>
        <mxCell id="4glgY-5p6oQ_kS3YtmnU-53" value="" style="group" vertex="1" connectable="0" parent="4glgY-5p6oQ_kS3YtmnU-59">
          <mxGeometry x="64" y="130" width="40" height="30" as="geometry" />
        </mxCell>
        <mxCell id="4glgY-5p6oQ_kS3YtmnU-9" value="成功" style="text;strokeColor=none;align=center;fillColor=none;html=1;verticalAlign=middle;whiteSpace=wrap;rounded=0;" vertex="1" parent="4glgY-5p6oQ_kS3YtmnU-53">
          <mxGeometry width="40" height="30" as="geometry" />
        </mxCell>
        <mxCell id="4glgY-5p6oQ_kS3YtmnU-54" value="" style="group" vertex="1" connectable="0" parent="4glgY-5p6oQ_kS3YtmnU-59">
          <mxGeometry x="209" y="130" width="40" height="50" as="geometry" />
        </mxCell>
        <mxCell id="4glgY-5p6oQ_kS3YtmnU-8" value="" style="endArrow=classic;html=1;rounded=0;exitX=1;exitY=1;exitDx=0;exitDy=0;" edge="1" parent="4glgY-5p6oQ_kS3YtmnU-54" source="4glgY-5p6oQ_kS3YtmnU-50">
          <mxGeometry width="50" height="50" relative="1" as="geometry">
            <mxPoint x="-39" y="-20" as="sourcePoint" />
            <mxPoint x="21" y="50" as="targetPoint" />
          </mxGeometry>
        </mxCell>
        <mxCell id="4glgY-5p6oQ_kS3YtmnU-10" value="失败" style="text;strokeColor=none;align=center;fillColor=none;html=1;verticalAlign=middle;whiteSpace=wrap;rounded=0;" vertex="1" parent="4glgY-5p6oQ_kS3YtmnU-54">
          <mxGeometry width="40" height="30" as="geometry" />
        </mxCell>
        <mxCell id="4glgY-5p6oQ_kS3YtmnU-7" value="" style="endArrow=classic;html=1;rounded=0;entryX=0.863;entryY=-0.013;entryDx=0;entryDy=0;entryPerimeter=0;exitX=0;exitY=1;exitDx=0;exitDy=0;" edge="1" parent="4glgY-5p6oQ_kS3YtmnU-59" source="4glgY-5p6oQ_kS3YtmnU-50" target="4glgY-5p6oQ_kS3YtmnU-3">
          <mxGeometry width="50" height="50" relative="1" as="geometry">
            <mxPoint x="125" y="120" as="sourcePoint" />
            <mxPoint x="70" y="170" as="targetPoint" />
          </mxGeometry>
        </mxCell>
        <mxCell id="4glgY-5p6oQ_kS3YtmnU-60" value="" style="group" vertex="1" connectable="0" parent="4glgY-5p6oQ_kS3YtmnU-61">
          <mxGeometry y="450" width="318" height="240" as="geometry" />
        </mxCell>
        <mxCell id="4glgY-5p6oQ_kS3YtmnU-34" value="" style="endArrow=classic;html=1;rounded=0;" edge="1" parent="4glgY-5p6oQ_kS3YtmnU-60">
          <mxGeometry width="50" height="50" relative="1" as="geometry">
            <mxPoint x="144.70999999999998" as="sourcePoint" />
            <mxPoint x="145" y="50" as="targetPoint" />
          </mxGeometry>
        </mxCell>
        <mxCell id="4glgY-5p6oQ_kS3YtmnU-47" value="" style="group" vertex="1" connectable="0" parent="4glgY-5p6oQ_kS3YtmnU-60">
          <mxGeometry y="50" width="318" height="190" as="geometry" />
        </mxCell>
        <mxCell id="4glgY-5p6oQ_kS3YtmnU-30" value="是" style="text;strokeColor=none;align=center;fillColor=none;html=1;verticalAlign=middle;whiteSpace=wrap;rounded=0;" vertex="1" parent="4glgY-5p6oQ_kS3YtmnU-47">
          <mxGeometry x="65" y="90" width="30" height="20" as="geometry" />
        </mxCell>
        <mxCell id="4glgY-5p6oQ_kS3YtmnU-31" value="" style="endArrow=classic;html=1;rounded=0;exitX=0;exitY=1;exitDx=0;exitDy=0;" edge="1" parent="4glgY-5p6oQ_kS3YtmnU-47">
          <mxGeometry width="50" height="50" relative="1" as="geometry">
            <mxPoint x="121" y="65" as="sourcePoint" />
            <mxPoint x="75" y="140" as="targetPoint" />
          </mxGeometry>
        </mxCell>
        <mxCell id="4glgY-5p6oQ_kS3YtmnU-32" value="" style="endArrow=classic;html=1;rounded=0;entryX=0.25;entryY=0;entryDx=0;entryDy=0;" edge="1" parent="4glgY-5p6oQ_kS3YtmnU-47" target="4glgY-5p6oQ_kS3YtmnU-27">
          <mxGeometry width="50" height="50" relative="1" as="geometry">
            <mxPoint x="170.77999999999997" y="65" as="sourcePoint" />
            <mxPoint x="216.99599999999998" y="139.0999999999999" as="targetPoint" />
          </mxGeometry>
        </mxCell>
        <mxCell id="4glgY-5p6oQ_kS3YtmnU-33" value="否" style="text;strokeColor=none;align=center;fillColor=none;html=1;verticalAlign=middle;whiteSpace=wrap;rounded=0;" vertex="1" parent="4glgY-5p6oQ_kS3YtmnU-47">
          <mxGeometry x="199" y="90" width="30" height="20" as="geometry" />
        </mxCell>
        <mxCell id="4glgY-5p6oQ_kS3YtmnU-44" value="" style="group" vertex="1" connectable="0" parent="4glgY-5p6oQ_kS3YtmnU-47">
          <mxGeometry x="100" width="90" height="90" as="geometry" />
        </mxCell>
        <mxCell id="4glgY-5p6oQ_kS3YtmnU-24" value="" style="rhombus;whiteSpace=wrap;html=1;fillColor=#CCCCFF;" vertex="1" parent="4glgY-5p6oQ_kS3YtmnU-44">
          <mxGeometry width="90" height="90" as="geometry" />
        </mxCell>
        <mxCell id="4glgY-5p6oQ_kS3YtmnU-25" value="_EntryList是否为空" style="text;strokeColor=none;align=center;fillColor=none;html=1;verticalAlign=middle;whiteSpace=wrap;rounded=0;" vertex="1" parent="4glgY-5p6oQ_kS3YtmnU-44">
          <mxGeometry x="15" y="25" width="60" height="40" as="geometry" />
        </mxCell>
        <mxCell id="4glgY-5p6oQ_kS3YtmnU-45" value="" style="group" vertex="1" connectable="0" parent="4glgY-5p6oQ_kS3YtmnU-47">
          <mxGeometry x="190" y="140" width="128" height="50" as="geometry" />
        </mxCell>
        <mxCell id="4glgY-5p6oQ_kS3YtmnU-27" value="" style="rounded=1;whiteSpace=wrap;html=1;fillColor=#FFE6CC;" vertex="1" parent="4glgY-5p6oQ_kS3YtmnU-45">
          <mxGeometry width="128" height="50" as="geometry" />
        </mxCell>
        <mxCell id="4glgY-5p6oQ_kS3YtmnU-29" value="唤醒_EntryList中线程" style="text;strokeColor=none;align=center;fillColor=none;html=1;verticalAlign=middle;whiteSpace=wrap;rounded=0;" vertex="1" parent="4glgY-5p6oQ_kS3YtmnU-45">
          <mxGeometry x="5" y="10" width="120" height="30" as="geometry" />
        </mxCell>
        <mxCell id="4glgY-5p6oQ_kS3YtmnU-46" value="" style="group" vertex="1" connectable="0" parent="4glgY-5p6oQ_kS3YtmnU-47">
          <mxGeometry y="140" width="100" height="50" as="geometry" />
        </mxCell>
        <mxCell id="4glgY-5p6oQ_kS3YtmnU-26" value="" style="rounded=1;whiteSpace=wrap;html=1;fillColor=#CCFFCC;" vertex="1" parent="4glgY-5p6oQ_kS3YtmnU-46">
          <mxGeometry width="100" height="50" as="geometry" />
        </mxCell>
        <mxCell id="4glgY-5p6oQ_kS3YtmnU-28" value="结束" style="text;strokeColor=none;align=center;fillColor=none;html=1;verticalAlign=middle;whiteSpace=wrap;rounded=0;" vertex="1" parent="4glgY-5p6oQ_kS3YtmnU-46">
          <mxGeometry x="25" y="10" width="50" height="30" as="geometry" />
        </mxCell>
      </root>
    </mxGraphModel>
  </diagram>
</mxfile>
